<svg width="24" height="24" viewBox="0 0 24 24" fill="none" xmlns="http://www.w3.org/2000/svg">
<path d="M19.5791 9.405L19.6388 9.6618H21C21.4142 9.6618 21.75 9.99758 21.75 10.4118C21.75 10.826 21.4142 11.1618 21 11.1618H3C2.58579 11.1618 2.25 10.826 2.25 10.4118C2.25 9.99758 2.58579 9.6618 3 9.6618H4.3619L4.8943 7.40689C5.15827 6.28887 5.37105 5.38762 5.6237 4.68544C5.88541 3.95806 6.21712 3.3616 6.76822 2.906C6.98113 2.72998 7.24369 2.58611 7.5617 2.56351C7.87421 2.54129 8.12961 2.6449 8.30622 2.73873C8.44246 2.81111 8.58658 2.90948 8.69891 2.98616L8.75953 3.02739C8.89546 3.11914 9.02854 3.20447 9.18242 3.28136C9.82939 3.60464 10.6876 3.3845 11.703 2.88762C12.3101 2.59053 13.1454 2.38615 13.9493 2.29869C14.7438 2.21225 15.6281 2.22653 16.3111 2.45971C16.9086 2.66374 17.3143 2.93827 17.6054 3.38326C17.7336 3.57927 17.8251 3.78686 17.902 3.97442C17.9343 4.05312 17.963 4.12557 17.9916 4.19779C18.0391 4.31757 18.0864 4.43679 18.1492 4.58285C18.822 6.14731 19.2105 7.81911 19.5791 9.405Z" fill="white"/>
<path d="M6.5 13.25C4.15279 13.25 2.25 15.1528 2.25 17.5C2.25 19.8472 4.15279 21.75 6.5 21.75C8.84721 21.75 10.75 19.8472 10.75 17.5C10.75 17.2539 10.7291 17.0126 10.6889 16.7779L11.0093 16.6083C11.6343 16.2774 12.3657 16.2774 12.9907 16.6083L13.3111 16.7779C13.2709 17.0126 13.25 17.2539 13.25 17.5C13.25 19.8472 15.1528 21.75 17.5 21.75C19.8472 21.75 21.75 19.8472 21.75 17.5C21.75 15.1528 19.8472 13.25 17.5 13.25C15.935 13.25 14.5676 14.0959 13.83 15.3554L13.6926 15.2826C12.6285 14.7193 11.3715 14.7193 10.3074 15.2826L10.17 15.3554C9.43241 14.0959 8.06499 13.25 6.5 13.25Z" fill="white"/>
</svg>
