<svg width="24" height="24" viewBox="0 0 24 24" fill="none" xmlns="http://www.w3.org/2000/svg">
<path d="M2.25 12.0443V18.5615C2.25 19.3245 2.55819 20.1309 3.05049 20.6879C3.55133 21.2546 4.40375 21.6997 5.33673 21.231C6.03312 20.881 6.61156 20.8683 7.08256 21.1839C8.20923 21.9387 9.79077 21.9387 10.9174 21.1839C11.2615 20.9534 11.5235 20.8761 11.7425 20.8746C11.9599 20.873 12.2269 20.9456 12.5826 21.1839C13.7092 21.9387 15.2908 21.9387 16.4174 21.1839C16.6297 21.0417 16.997 20.9473 17.4609 20.958C17.9153 20.9685 18.3591 21.0781 18.6633 21.231C19.5963 21.6997 20.4487 21.2546 20.9495 20.6879C21.4418 20.1309 21.75 19.3245 21.75 18.5615V12.0443C21.75 6.63855 17.3882 2.25 12 2.25C6.61175 2.25 2.25 6.63855 2.25 12.0443ZM8.25 15.5C8.25 15.0858 8.58579 14.75 9 14.75H15C15.4142 14.75 15.75 15.0858 15.75 15.5C15.75 15.9142 15.4142 16.25 15 16.25H9C8.58579 16.25 8.25 15.9142 8.25 15.5ZM10.25 10V10.5C10.25 10.9142 9.91421 11.25 9.5 11.25C9.08579 11.25 8.75 10.9142 8.75 10.5V10C8.75 9.58579 9.08579 9.25 9.5 9.25C9.91421 9.25 10.25 9.58579 10.25 10ZM14.5 9.25C14.9142 9.25 15.25 9.58579 15.25 10V10.5C15.25 10.9142 14.9142 11.25 14.5 11.25C14.0858 11.25 13.75 10.9142 13.75 10.5V10C13.75 9.58579 14.0858 9.25 14.5 9.25Z" fill="white"/>
</svg>
