<svg width="24" height="24" viewBox="0 0 24 24" fill="none" xmlns="http://www.w3.org/2000/svg">
<path d="M3 2.25C2.58579 2.25 2.25 2.58579 2.25 3V4.8C2.25 5.21421 2.58579 5.55 3 5.55C3.41421 5.55 3.75 5.21421 3.75 4.8V3.75H4.8C5.21421 3.75 5.55 3.41421 5.55 3C5.55 2.58579 5.21421 2.25 4.8 2.25H3Z" fill="white"/>
<path d="M8.4 2.25C7.98579 2.25 7.65 2.58579 7.65 3C7.65 3.41421 7.98579 3.75 8.4 3.75H10.2C10.6142 3.75 10.95 3.41421 10.95 3C10.95 2.58579 10.6142 2.25 10.2 2.25H8.4Z" fill="white"/>
<path d="M13.8 2.25C13.3858 2.25 13.05 2.58579 13.05 3C13.05 3.41421 13.3858 3.75 13.8 3.75H14.85V4.35C14.85 4.76421 15.1858 5.1 15.6 5.1C16.0142 5.1 16.35 4.76421 16.35 4.35V3C16.35 2.58579 16.0142 2.25 15.6 2.25H13.8Z" fill="white"/>
<path d="M16.35 7.5C16.35 7.08579 16.0142 6.75 15.6 6.75C15.1858 6.75 14.85 7.08579 14.85 7.5V7.65H13.1679C12.3551 7.64999 11.6994 7.64999 11.1685 7.69336C10.6219 7.73803 10.1418 7.83238 9.69754 8.05873C8.99193 8.41825 8.41825 8.99193 8.05873 9.69754C7.83238 10.1418 7.73803 10.6219 7.69336 11.1685C7.64999 11.6994 7.64999 12.3551 7.65 13.1679V14.85H7.5C7.08579 14.85 6.75 15.1858 6.75 15.6C6.75 16.0142 7.08579 16.35 7.5 16.35H7.65V16.5C7.65 16.9142 7.98579 17.25 8.4 17.25C8.81421 17.25 9.15 16.9142 9.15 16.5V16.35H10.8321C11.645 16.35 12.3006 16.35 12.8315 16.3066C13.3781 16.262 13.8582 16.1676 14.3025 15.9413C15.0081 15.5817 15.5817 15.0081 15.9413 14.3025C16.1676 13.8582 16.262 13.3781 16.3066 12.8315C16.35 12.3006 16.35 11.645 16.35 10.8321V9.15H16.5C16.9142 9.15 17.25 8.81421 17.25 8.4C17.25 7.98579 16.9142 7.65 16.5 7.65H16.35V7.5Z" fill="white"/>
<path d="M3.75 8.4C3.75 7.98579 3.41421 7.65 3 7.65C2.58579 7.65 2.25 7.98579 2.25 8.4V10.2C2.25 10.6142 2.58579 10.95 3 10.95C3.41421 10.95 3.75 10.6142 3.75 10.2V8.4Z" fill="white"/>
<path d="M19.65 7.65C19.2358 7.65 18.9 7.98579 18.9 8.4C18.9 8.81421 19.2358 9.15 19.65 9.15H20.25V10.2C20.25 10.6142 20.5858 10.95 21 10.95C21.4142 10.95 21.75 10.6142 21.75 10.2V8.4C21.75 7.98579 21.4142 7.65 21 7.65H19.65Z" fill="white"/>
<path d="M3.75 13.8C3.75 13.3858 3.41421 13.05 3 13.05C2.58579 13.05 2.25 13.3858 2.25 13.8V15.6C2.25 16.0142 2.58579 16.35 3 16.35H4.35C4.76421 16.35 5.1 16.0142 5.1 15.6C5.1 15.1858 4.76421 14.85 4.35 14.85H3.75V13.8Z" fill="white"/>
<path d="M21.75 13.8C21.75 13.3858 21.4142 13.05 21 13.05C20.5858 13.05 20.25 13.3858 20.25 13.8V15.6C20.25 16.0142 20.5858 16.35 21 16.35C21.4142 16.35 21.75 16.0142 21.75 15.6V13.8Z" fill="white"/>
<path d="M21.75 19.2C21.75 18.7858 21.4142 18.45 21 18.45C20.5858 18.45 20.25 18.7858 20.25 19.2V20.25H19.2C18.7858 20.25 18.45 20.5858 18.45 21C18.45 21.4142 18.7858 21.75 19.2 21.75H21C21.4142 21.75 21.75 21.4142 21.75 21V19.2Z" fill="white"/>
<path d="M9.15 19.65C9.15 19.2358 8.81421 18.9 8.4 18.9C7.98579 18.9 7.65 19.2358 7.65 19.65V21C7.65 21.4142 7.98579 21.75 8.4 21.75H10.2C10.6142 21.75 10.95 21.4142 10.95 21C10.95 20.5858 10.6142 20.25 10.2 20.25H9.15V19.65Z" fill="white"/>
<path d="M13.8 20.25C13.3858 20.25 13.05 20.5858 13.05 21C13.05 21.4142 13.3858 21.75 13.8 21.75H15.6C16.0142 21.75 16.35 21.4142 16.35 21C16.35 20.5858 16.0142 20.25 15.6 20.25H13.8Z" fill="white"/>
</svg>
