<svg width="24" height="24" viewBox="0 0 24 24" fill="none" xmlns="http://www.w3.org/2000/svg">
<path d="M4.60825 4.36652C5.47521 4.24996 6.57754 4.24998 7.94513 4.25H16.0549C17.4225 4.24998 18.5248 4.24996 19.3918 4.36652C20.2919 4.48754 21.0497 4.74643 21.6517 5.34835C22.2536 5.95027 22.5125 6.70814 22.6335 7.60825C22.75 8.47522 22.75 9.57754 22.75 10.9451V13.0549C22.75 14.4225 22.75 15.5248 22.6335 16.3918C22.5125 17.2919 22.2536 18.0497 21.6517 18.6517C21.0497 19.2536 20.2919 19.5125 19.3918 19.6335C18.5248 19.75 17.4225 19.75 16.0549 19.75H7.94512C6.57754 19.75 5.47522 19.75 4.60825 19.6335C3.70814 19.5125 2.95027 19.2536 2.34835 18.6517C1.74643 18.0497 1.48754 17.2919 1.36652 16.3918C1.24996 15.5248 1.24998 14.4225 1.25 13.0549V10.9451C1.24998 9.57753 1.24996 8.47521 1.36652 7.60825C1.48754 6.70814 1.74643 5.95027 2.34835 5.34835C2.95027 4.74643 3.70814 4.48754 4.60825 4.36652ZM5 8.25003C4.58579 8.25003 4.25 8.58582 4.25 9.00003C4.25 9.41424 4.58579 9.75003 5 9.75003H8C8.41421 9.75003 8.75 9.41424 8.75 9.00003C8.75 8.58582 8.41421 8.25003 8 8.25003H5ZM10.9999 8.25003C10.5857 8.25003 10.2499 8.58582 10.2499 9.00003C10.2499 9.41424 10.5857 9.75003 10.9999 9.75003H13.9999C14.4142 9.75003 14.7499 9.41424 14.7499 9.00003C14.7499 8.58582 14.4142 8.25003 13.9999 8.25003H10.9999ZM17 8.25003C16.5858 8.25003 16.25 8.58582 16.25 9.00003C16.25 9.41424 16.5858 9.75003 17 9.75003H19C19.4142 9.75003 19.75 9.41424 19.75 9.00003C19.75 8.58582 19.4142 8.25003 19 8.25003H17ZM5 11.25C4.58579 11.25 4.25 11.5858 4.25 12C4.25 12.4142 4.58579 12.75 5 12.75H7C7.41421 12.75 7.75 12.4142 7.75 12C7.75 11.5858 7.41421 11.25 7 11.25H5ZM10 11.25C9.58579 11.25 9.25 11.5858 9.25 12C9.25 12.4142 9.58579 12.75 10 12.75H13C13.4142 12.75 13.75 12.4142 13.75 12C13.75 11.5858 13.4142 11.25 13 11.25H10ZM16 11.25C15.5858 11.25 15.25 11.5858 15.25 12C15.25 12.4142 15.5858 12.75 16 12.75H19C19.4142 12.75 19.75 12.4142 19.75 12C19.75 11.5858 19.4142 11.25 19 11.25H16ZM7 15.25C6.58579 15.25 6.25 15.5858 6.25 16C6.25 16.4142 6.58579 16.75 7 16.75H17C17.4142 16.75 17.75 16.4142 17.75 16C17.75 15.5858 17.4142 15.25 17 15.25H7Z" fill="white"/>
</svg>
