<svg width="24" height="24" viewBox="0 0 24 24" fill="none" xmlns="http://www.w3.org/2000/svg">
<path d="M9.57206 4.90418C9.0398 5.63964 8.75 6.71693 8.75 8V9.25046H17.3304C17.8646 9.25045 18.3104 9.25044 18.6747 9.2802C19.0546 9.31124 19.4112 9.37835 19.7485 9.55019C20.2659 9.81384 20.6866 10.2345 20.9503 10.752C21.1221 11.0892 21.1892 11.4459 21.2203 11.8258C21.25 12.19 21.25 12.6359 21.25 13.17V17.8309C21.25 18.3651 21.25 18.8109 21.2203 19.1751C21.1892 19.555 21.1221 19.9117 20.9503 20.2489C20.6866 20.7664 20.2659 21.1871 19.7485 21.4507C19.4112 21.6226 19.0546 21.6897 18.6747 21.7207C18.3104 21.7505 17.8646 21.7505 17.3305 21.7505H6.66955C6.1354 21.7505 5.68956 21.7505 5.32533 21.7207C4.94545 21.6897 4.58879 21.6226 4.25153 21.4507C3.73408 21.1871 3.31339 20.7664 3.04973 20.2489C2.87789 19.9117 2.81078 19.555 2.77974 19.1751C2.74998 18.8109 2.74999 18.365 2.75 17.8309V13.17C2.74999 12.6359 2.74998 12.19 2.77974 11.8258C2.81078 11.4459 2.87789 11.0892 3.04973 10.752C3.31338 10.2345 3.73408 9.81384 4.25153 9.55019C4.58879 9.37835 4.94545 9.31124 5.32533 9.2802C5.68957 9.25044 6.13542 9.25045 6.66957 9.25046H7.25V8C7.25 6.52165 7.57951 5.09893 8.3569 4.02476C9.15751 2.91849 10.3869 2.25 12 2.25C13.2116 2.25 14.2211 2.62701 14.9958 3.30939C15.7607 3.98319 16.2454 4.90881 16.5058 5.92895C16.6083 6.33029 16.366 6.73871 15.9647 6.84118C15.5634 6.94365 15.1549 6.70137 15.0525 6.30004C14.8465 5.49335 14.4888 4.86172 14.0043 4.43498C13.5296 4.01682 12.8828 3.75 12 3.75C10.8517 3.75 10.0811 4.2008 9.57206 4.90418ZM16.75 14.0005C16.75 13.5862 16.4142 13.2505 16 13.2505C15.5858 13.2505 15.25 13.5862 15.25 14.0005V17.0005C15.25 17.4147 15.5858 17.7505 16 17.7505C16.4142 17.7505 16.75 17.4147 16.75 17.0005V14.0005Z" fill="white"/>
</svg>
