<svg width="24" height="24" viewBox="0 0 24 24" fill="none" xmlns="http://www.w3.org/2000/svg">
<path d="M10.7458 8.92508V10.1965H13.2542V8.92508C13.2542 8.47245 13.0912 8.20057 12.8931 8.03268C12.6782 7.85059 12.3634 7.74374 12.014 7.75028C11.2971 7.76369 10.7458 8.20147 10.7458 8.92508Z" fill="white"/>
<path d="M8.75 11.9572C8.75 11.8072 8.86889 11.6965 9.00212 11.6965H14.9979C15.1311 11.6965 15.25 11.8072 15.25 11.9572V14.9893C15.25 15.1393 15.1311 15.25 14.9979 15.25H9.00212C8.8689 15.25 8.75 15.1393 8.75 14.9893V11.9572Z" fill="white"/>
<path d="M9.367 2.25H14.633C15.7251 2.24999 16.5906 2.24999 17.2883 2.30699C18.0017 2.36527 18.6053 2.48688 19.1565 2.76772C20.0502 3.22312 20.7769 3.94978 21.2323 4.84355C21.5131 5.39472 21.6347 5.99834 21.693 6.71173C21.75 7.40935 21.75 8.27485 21.75 9.36698V14.633C21.75 15.7252 21.75 16.5906 21.693 17.2883C21.6347 18.0017 21.5131 18.6053 21.2323 19.1565C20.7769 20.0502 20.0502 20.7769 19.1565 21.2323C18.6053 21.5131 18.0017 21.6347 17.2883 21.693C16.5906 21.75 15.7252 21.75 14.633 21.75H9.36698C8.27484 21.75 7.40935 21.75 6.71173 21.693C5.99834 21.6347 5.39472 21.5131 4.84355 21.2323C3.94978 20.7769 3.22312 20.0502 2.76772 19.1565C2.48688 18.6053 2.36527 18.0017 2.30699 17.2883C2.24999 16.5906 2.24999 15.7252 2.25 14.633V9.36699C2.24999 8.27486 2.24999 7.40935 2.30699 6.71173C2.36527 5.99834 2.48688 5.39472 2.76772 4.84355C3.22312 3.94978 3.94978 3.22312 4.84355 2.76772C5.39472 2.48688 5.99835 2.36527 6.71173 2.30699C7.40935 2.24999 8.27486 2.24999 9.367 2.25ZM14.7542 8.92508C14.7542 8.05709 14.4162 7.35726 13.8628 6.88828C13.3261 6.4335 12.6387 6.23832 11.986 6.25054C10.6986 6.27463 9.24576 7.15746 9.24576 8.92508V10.1965H9.00212C8.02844 10.1965 7.25 10.9908 7.25 11.9572V14.9893C7.25 15.9557 8.02844 16.75 9.00212 16.75H14.9979C15.9716 16.75 16.75 15.9557 16.75 14.9893V11.9572C16.75 10.9908 15.9716 10.1965 14.9979 10.1965H14.7542V8.92508Z" fill="white"/>
</svg>
