<svg width="24" height="24" viewBox="0 0 24 24" fill="none" xmlns="http://www.w3.org/2000/svg">
<path d="M11.5819 2.37733C11.8348 2.20756 12.1652 2.20756 12.4181 2.37733L13.3794 3.02278C14.9435 4.07295 16.7427 4.72053 18.6173 4.90799C19.2603 4.97229 19.75 5.51337 19.75 6.15959V11C19.75 14.0044 17.8211 16.688 16.0413 18.5441C15.1358 19.4885 14.2328 20.2557 13.5571 20.7866C13.2187 21.0525 12.9357 21.2604 12.7359 21.4027C12.6359 21.4739 12.5567 21.5288 12.5016 21.5664C12.474 21.5852 12.4524 21.5997 12.4374 21.6098L12.4196 21.6217L12.4145 21.6251L12.4129 21.6261L11.5877 21.6265L11.5855 21.6251L11.5804 21.6217L11.5626 21.6098C11.5476 21.5997 11.526 21.5852 11.4984 21.5664C11.4433 21.5288 11.3641 21.4739 11.2641 21.4027C11.0643 21.2604 10.7813 21.0525 10.4429 20.7866C9.7672 20.2557 8.86424 19.4885 7.95866 18.5441C6.17889 16.688 4.25 14.0044 4.25 11V6.15959C4.25 5.51337 4.73967 4.97229 5.38269 4.90799C7.25727 4.72053 9.05654 4.07295 10.6206 3.02278L11.5819 2.37733ZM11.5877 21.6265C11.8377 21.7908 12.1619 21.7911 12.4119 21.6268L11.5877 21.6265ZM11.25 19.5125V4.40409C9.59121 5.4724 7.70988 6.14727 5.75 6.37687V11C5.75 13.3956 7.32111 15.712 9.04134 17.5059C9.83392 18.3325 10.6288 19.0177 11.25 19.5125Z" fill="white"/>
</svg>
