<svg width="24" height="24" viewBox="0 0 24 24" fill="none" xmlns="http://www.w3.org/2000/svg">
<path d="M9.88327 2.46967C9.59038 2.17678 9.1155 2.17678 8.82261 2.46967C8.52972 2.76256 8.52972 3.23744 8.82261 3.53033L11.4697 6.17739C11.7626 6.47028 12.2374 6.47028 12.5303 6.17739C12.8232 5.8845 12.8232 5.40962 12.5303 5.11673L9.88327 2.46967Z" fill="white"/>
<path d="M4.58915 3.52849C4.29626 3.2356 3.82139 3.2356 3.52849 3.52849C3.2356 3.82139 3.2356 4.29626 3.52849 4.58915L9.35202 10.4127C9.64492 10.7056 10.1198 10.7056 10.4127 10.4127C10.7056 10.1198 10.7056 9.64492 10.4127 9.35202L4.58915 3.52849Z" fill="white"/>
<path d="M15.3179 7.95871C15.1908 7.70462 14.9311 7.54412 14.6471 7.54412C14.363 7.54412 14.1033 7.70462 13.9762 7.95871L11.9704 11.9704L7.95871 13.9762C7.70462 14.1033 7.54412 14.363 7.54412 14.6471C7.54412 14.9311 7.70462 15.1908 7.95871 15.3179L11.9704 17.3237L13.9762 21.3354C14.1033 21.5895 14.363 21.75 14.6471 21.75C14.9311 21.75 15.1908 21.5895 15.3179 21.3354L17.3237 17.3237L21.3354 15.3179C21.5895 15.1908 21.75 14.9311 21.75 14.6471C21.75 14.363 21.5895 14.1033 21.3354 13.9762L17.3237 11.9704L15.3179 7.95871Z" fill="white"/>
<path d="M3.53033 8.82261C3.23744 8.52972 2.76256 8.52972 2.46967 8.82261C2.17678 9.1155 2.17678 9.59038 2.46967 9.88327L5.11673 12.5303C5.40962 12.8232 5.8845 12.8232 6.17739 12.5303C6.47028 12.2374 6.47028 11.7626 6.17739 11.4697L3.53033 8.82261Z" fill="white"/>
</svg>
