<svg width="24" height="24" viewBox="0 0 24 24" fill="none" xmlns="http://www.w3.org/2000/svg">
<path d="M16.5957 8.38807C15.7637 5.72712 14.1023 4.16643 12.1027 3.55201C10.0161 2.91085 7.68392 3.33714 5.74895 4.38374C3.81359 5.43056 2.1728 7.15317 1.53339 9.24264C0.881518 11.3728 1.30536 13.7758 3.30579 16.0387C4.47231 17.4397 6.20205 18.25 8.02626 18.25H9.15132L11.4317 20.5303C11.7246 20.8232 12.1995 20.8232 12.4924 20.5303L14.7727 18.25H16.8722C18.0895 18.25 19.6498 18.0235 20.766 17.0663C21.8021 16.1777 22.3657 15.1565 22.4788 14.0917C22.5911 13.0348 22.2492 12.0327 21.659 11.1914C20.5935 9.67274 18.6468 8.56528 16.5957 8.38807ZM14.7727 18.25H9.15132L8.2497 17.3484C7.95681 17.0555 7.9568 16.5806 8.24969 16.2877C8.54259 15.9948 9.01746 15.9948 9.31036 16.2877L11.2124 18.1897L11.2161 11.1358C11.2163 10.7216 11.5523 10.386 11.9665 10.3862C12.3807 10.3864 12.7163 10.7224 12.7161 11.1366L12.7124 18.189L14.6137 16.2877C14.9066 15.9948 15.3815 15.9948 15.6744 16.2877C15.9673 16.5806 15.9673 17.0555 15.6744 17.3484L14.7727 18.25Z" fill="white"/>
</svg>
