<svg width="24" height="24" viewBox="0 0 24 24" fill="none" xmlns="http://www.w3.org/2000/svg">
<path d="M7.25009 8C7.25009 7.30964 7.80974 6.75 8.50009 6.75C9.19045 6.75 9.75009 7.30964 9.75009 8C9.75009 8.69036 9.19045 9.25 8.50009 9.25C7.80974 9.25 7.25009 8.69036 7.25009 8Z" fill="white"/>
<path d="M9.36709 2.25H14.6331C15.7252 2.24999 16.5907 2.24999 17.2884 2.30699C18.0017 2.36527 18.6054 2.48688 19.1565 2.76772C20.0503 3.22312 20.777 3.94978 21.2324 4.84355C21.5132 5.39472 21.6348 5.99834 21.6931 6.71173C21.7501 7.40935 21.7501 8.27484 21.7501 9.36698V14.633C21.7501 15.7252 21.7501 16.5906 21.6931 17.2883C21.6348 18.0017 21.5132 18.6053 21.2324 19.1565C20.777 20.0502 20.0503 20.7769 19.1565 21.2323C18.6054 21.5131 18.0017 21.6347 17.2884 21.693C16.5907 21.75 15.7252 21.75 14.6331 21.75H9.36707C8.27494 21.75 7.40944 21.75 6.71182 21.693C5.99844 21.6347 5.39481 21.5131 4.84364 21.2323C3.94987 20.7769 3.22321 20.0502 2.76781 19.1565C2.48697 18.6053 2.36536 18.0017 2.30708 17.2883C2.25008 16.5906 2.25009 15.7251 2.25009 14.633L2.25009 13.0763C2.24997 13.0685 2.24997 13.0608 2.25009 13.053L2.25009 9.367C2.25009 8.27485 2.25008 7.40936 2.30708 6.71173C2.36536 5.99834 2.48697 5.39472 2.76781 4.84355C3.22321 3.94978 3.94987 3.22312 4.84364 2.76772C5.39481 2.48688 5.99844 2.36527 6.71182 2.30699C7.40945 2.24999 8.27495 2.24999 9.36709 2.25ZM3.75009 13.7533V14.6C3.75009 15.7325 3.75067 16.5367 3.8021 17.1661C3.8528 17.7867 3.94918 18.171 4.10432 18.4755C4.41591 19.087 4.9131 19.5842 5.52462 19.8958C5.82909 20.0509 6.21335 20.1473 6.83397 20.198C7.223 20.2298 7.67884 20.2421 8.23771 20.2469C8.19192 18.8549 8.40476 17.5366 8.83094 16.3271C7.7116 14.7206 5.85093 13.6858 3.75009 13.7533ZM20.2501 10.6691C14.3874 10.176 9.52278 14.5427 9.7388 20.25H14.6001C15.7326 20.25 16.5368 20.2494 17.1662 20.198C17.7868 20.1473 18.1711 20.0509 18.4756 19.8958C19.0871 19.5842 19.5843 19.087 19.8959 18.4755C20.051 18.171 20.1474 17.7867 20.1981 17.1661C20.2495 16.5367 20.2501 15.7325 20.2501 14.6V10.6691ZM5.75009 8C5.75009 9.51878 6.98131 10.75 8.50009 10.75C10.0189 10.75 11.2501 9.51878 11.2501 8C11.2501 6.48122 10.0189 5.25 8.50009 5.25C6.98131 5.25 5.75009 6.48122 5.75009 8ZM7.25009 8C7.25009 7.30964 7.80974 6.75 8.50009 6.75C9.19045 6.75 9.75009 7.30964 9.75009 8C9.75009 8.69036 9.19045 9.25 8.50009 9.25C7.80974 9.25 7.25009 8.69036 7.25009 8Z" fill="white"/>
</svg>
