<svg width="24" height="24" viewBox="0 0 24 24" fill="none" xmlns="http://www.w3.org/2000/svg">
<path d="M12 1.25C11.5848 1.25 11.1737 1.33183 10.7901 1.49082C10.4067 1.64976 10.0583 1.88268 9.76497 2.17629L2.17656 9.7647C1.88283 10.0581 1.6498 10.4066 1.49082 10.7901C1.33183 11.1737 1.25 11.5848 1.25 12C1.25 12.4152 1.33183 12.8263 1.49082 13.2099C1.6498 13.5934 1.88283 13.9419 2.17656 14.2353L9.7647 21.8234C10.0581 22.1172 10.4066 22.3502 10.7901 22.5092C11.1737 22.6682 11.5848 22.75 12 22.75C12.4152 22.75 12.8263 22.6682 13.2099 22.5092C13.5934 22.3502 13.9419 22.1172 14.2353 21.8234L21.8234 14.2353C22.1172 13.9419 22.3502 13.5934 22.5092 13.2099C22.6682 12.8263 22.75 12.4152 22.75 12C22.75 11.5848 22.6682 11.1737 22.5092 10.7901C22.3502 10.4066 22.1172 10.0581 21.8234 9.7647L14.2353 2.17656C13.9419 1.88283 13.5934 1.64981 13.2099 1.49082C12.8263 1.33183 12.4152 1.25 12 1.25ZM12 7.25C12.4142 7.25 12.75 7.58579 12.75 8V8.5C12.75 8.91421 12.4142 9.25 12 9.25C11.5858 9.25 11.25 8.91421 11.25 8.5V8C11.25 7.58579 11.5858 7.25 12 7.25ZM10.75 16C10.75 15.6734 10.9587 15.3956 11.25 15.2927V11.7073C10.9587 11.6044 10.75 11.3266 10.75 11C10.75 10.5858 11.0858 10.25 11.5 10.25H12C12.4142 10.25 12.75 10.5858 12.75 11V15.2927C13.0413 15.3956 13.25 15.6734 13.25 16C13.25 16.4142 12.9142 16.75 12.5 16.75H11.5C11.0858 16.75 10.75 16.4142 10.75 16Z" fill="white"/>
</svg>
