<svg width="24" height="24" viewBox="0 0 24 24" fill="none" xmlns="http://www.w3.org/2000/svg">
<path d="M17.2883 2.30699C16.5906 2.24999 15.7251 2.24999 14.633 2.25H9.367C8.27486 2.24999 7.40936 2.24999 6.71173 2.30699C5.99834 2.36527 5.39472 2.48688 4.84355 2.76772C3.94978 3.22312 3.22312 3.94978 2.76772 4.84355C2.48688 5.39472 2.36527 5.99834 2.30699 6.71173C2.26117 7.27251 2.25219 7.94175 2.25043 8.75H21.7496C21.7478 7.94175 21.7388 7.27251 21.693 6.71173C21.6347 5.99834 21.5131 5.39472 21.2323 4.84355C20.7769 3.94978 20.0502 3.22312 19.1565 2.76772C18.6053 2.48688 18.0017 2.36527 17.2883 2.30699Z" fill="white"/>
<path d="M21.693 17.2883C21.75 16.5906 21.75 15.7252 21.75 14.633V10.25H9.75L9.75 21.75H14.633C15.7252 21.75 16.5906 21.75 17.2883 21.693C18.0017 21.6347 18.6053 21.5131 19.1565 21.2323C20.0502 20.7769 20.7769 20.0502 21.2323 19.1565C21.5131 18.6053 21.6347 18.0017 21.693 17.2883Z" fill="white"/>
<path d="M4.84355 21.2323C5.39472 21.5131 5.99834 21.6347 6.71173 21.693C7.15253 21.729 7.66034 21.7423 8.25 21.7472L8.25 10.25H2.25V14.633C2.24999 15.7251 2.24999 16.5906 2.30699 17.2883C2.36527 18.0017 2.48688 18.6053 2.76772 19.1565C3.22312 20.0502 3.94978 20.7769 4.84355 21.2323Z" fill="white"/>
</svg>
