<svg width="24" height="24" viewBox="0 0 24 24" fill="none" xmlns="http://www.w3.org/2000/svg">
<path d="M5.03682 17.9031C5.16282 18.1408 5.55135 18.6858 6.09742 18.9638L4.53023 20.5304C4.23729 20.8233 3.76242 20.8232 3.46957 20.5302C3.17673 20.2373 3.17682 19.7624 3.46977 19.4696L5.03682 17.9031Z" fill="white"/>
<path d="M6.09742 18.9638C7.92484 19.9608 9.70828 20.399 11.3716 20.2897C13.1982 20.1697 14.8194 19.3927 16.1303 18.0818C18.7287 15.4834 20.0731 10.8422 19.6846 5.0146C19.6596 4.63969 19.3611 4.34114 18.9862 4.31614C13.1586 3.92762 8.51749 5.27202 5.91911 7.87045C4.60822 9.18137 3.83123 10.8026 3.7112 12.6291C3.60189 14.2924 4.04002 16.0758 5.03682 17.9031L9.57018 13.3692C9.86305 13.0762 10.3379 13.0762 10.6308 13.3691C10.9238 13.6619 10.9238 14.1368 10.6309 14.4297L6.09742 18.9638Z" fill="white"/>
</svg>
