<svg width="24" height="24" viewBox="0 0 24 24" fill="none" xmlns="http://www.w3.org/2000/svg">
<path d="M9.367 2.25H14.633C15.7251 2.24999 16.5906 2.24999 17.2883 2.30699C18.0017 2.36527 18.6053 2.48688 19.1565 2.76772C20.0502 3.22312 20.7769 3.94978 21.2323 4.84355C21.5131 5.39472 21.6347 5.99834 21.693 6.71173C21.75 7.40935 21.75 8.27484 21.75 9.36698V14.633C21.75 15.7252 21.75 16.5906 21.693 17.2883C21.6347 18.0017 21.5131 18.6053 21.2323 19.1565C20.7769 20.0502 20.0502 20.7769 19.1565 21.2323C18.6053 21.5131 18.0017 21.6347 17.2883 21.693C16.5906 21.75 15.7252 21.75 14.633 21.75H9.36698C8.27484 21.75 7.40935 21.75 6.71173 21.693C5.99834 21.6347 5.39472 21.5131 4.84355 21.2323C3.94978 20.7769 3.22312 20.0502 2.76772 19.1565C2.48688 18.6053 2.36527 18.0017 2.30699 17.2883C2.24999 16.5906 2.24999 15.7251 2.25 14.633V9.367C2.24999 8.27485 2.24999 7.40936 2.30699 6.71173C2.36527 5.99834 2.48688 5.39472 2.76772 4.84355C3.22312 3.94978 3.94978 3.22312 4.84355 2.76772C5.39472 2.48688 5.99834 2.36527 6.71173 2.30699C7.40936 2.24999 8.27486 2.24999 9.367 2.25ZM6.83388 3.80201C6.21325 3.85271 5.829 3.94909 5.52453 4.10423C4.913 4.41582 4.41582 4.913 4.10423 5.52453C3.94909 5.829 3.85271 6.21325 3.80201 6.83388C3.75058 7.46327 3.75 8.26752 3.75 9.4V14.6C3.75 15.7325 3.75058 16.5367 3.80201 17.1661C3.85271 17.7867 3.94909 18.171 4.10423 18.4755C4.41582 19.087 4.913 19.5842 5.52453 19.8958C5.829 20.0509 6.21325 20.1473 6.83388 20.198C7.22578 20.23 7.68548 20.2423 8.25 20.2471V3.75295C7.68548 3.75768 7.22578 3.76999 6.83388 3.80201ZM13.4697 8.46967C13.1768 8.76256 13.1768 9.23744 13.4697 9.53033L15.9393 12L13.4697 14.4697C13.1768 14.7626 13.1768 15.2374 13.4697 15.5303C13.7626 15.8232 14.2374 15.8232 14.5303 15.5303L17.5303 12.5303C17.8232 12.2374 17.8232 11.7626 17.5303 11.4697L14.5303 8.46967C14.2374 8.17678 13.7626 8.17678 13.4697 8.46967Z" fill="white"/>
</svg>
